<?xml version="1.0" encoding="UTF-8" standalone="no"?>
<svg
   xmlns:dc="http://purl.org/dc/elements/1.1/"
   xmlns:cc="http://creativecommons.org/ns#"
   xmlns:rdf="http://www.w3.org/1999/02/22-rdf-syntax-ns#"
   xmlns:svg="http://www.w3.org/2000/svg"
   xmlns="http://www.w3.org/2000/svg"
   xmlns:sodipodi="http://sodipodi.sourceforge.net/DTD/sodipodi-0.dtd"
   xmlns:inkscape="http://www.inkscape.org/namespaces/inkscape"
   width="210mm"
   height="297mm"
   viewBox="0 0 210 297"
   version="1.1"
   id="svg8"
   inkscape:version="1.0.2 (e86c8708, 2021-01-15)"
   sodipodi:docname="logoEconomy.svg">
  <defs
     id="defs2" />
  <sodipodi:namedview
     id="base"
     pagecolor="#ffffff"
     bordercolor="#666666"
     borderopacity="1.0"
     inkscape:pageopacity="0.0"
     inkscape:pageshadow="2"
     inkscape:zoom="0.35"
     inkscape:cx="391.42857"
     inkscape:cy="508.57143"
     inkscape:document-units="mm"
     inkscape:current-layer="layer1"
     inkscape:document-rotation="0"
     showgrid="false"
     inkscape:window-width="1252"
     inkscape:window-height="708"
     inkscape:window-x="0"
     inkscape:window-y="23"
     inkscape:window-maximized="0" />
  <metadata
     id="metadata5">
    <rdf:RDF>
      <cc:Work
         rdf:about="">
        <dc:format>image/svg+xml</dc:format>
        <dc:type
           rdf:resource="http://purl.org/dc/dcmitype/StillImage" />
        <dc:title></dc:title>
      </cc:Work>
    </rdf:RDF>
  </metadata>
  <g
     inkscape:label="Layer 1"
     inkscape:groupmode="layer"
     id="layer1">
    <path
       style="fill:#37ce4d;stroke-width:0.661771"
       d="M 106.18973,220.60581 H 90.42618 l -0.719042,-1.41459 -0.71904,-1.41456 1.118778,-1.30161 1.118779,-1.3016 h 4.737118 4.737117 v -0.58674 -0.58675 l -2.992277,-0.43181 -2.99225,-0.43183 h -6.681881 -6.681886 v -2.37665 -2.37665 h 25.152784 25.15276 v 2.37665 2.37665 l -6.93312,0.005 -6.93314,0.005 -3.3697,0.42619 -3.36968,0.42619 0.34426,0.58648 0.34427,0.58649 h 4.99822 4.99822 l 1.21608,0.93625 1.21608,0.93623 -1.10769,1.77992 -1.10768,1.77993 h -15.76353 z m -35.974744,-7.46949 h -5.416928 l -0.429957,-0.4527 -0.429964,-0.45267 v -1.56057 -1.56053 l 1.247487,-0.70293 1.247487,-0.70293 h 4.413492 4.413499 l 1.433388,1.05704 1.433391,1.05709 v 0.95616 0.95618 l -1.247488,0.70293 -1.247487,0.70293 z m 70.298764,0 h -5.41691 l -0.42996,-0.4527 -0.42997,-0.45267 v -1.60127 -1.60122 l 1.65433,-0.66225 1.65437,-0.66222 h 4.42654 4.42655 l 1.01347,1.06706 1.01348,1.06706 v 0.94618 0.94617 l -1.24749,0.70293 -1.24747,0.70293 z M 9.7280573,203.62973 h -0.536923 l -0.973314,-1.4631 -0.973311,-1.46305 0.636961,-1.25311 0.636963,-1.2531 h 1.230623 1.2306217 l 1.023856,1.52785 1.023855,1.52784 -1.381206,1.18833 -1.381203,1.18834 z m 9.5017167,-0.0788 -2.049996,-0.0788 -1.098347,-0.3044 -1.098344,-0.30439 -0.431815,-1.43247 -0.431814,-1.43244 1.169721,-0.90054 1.169719,-0.90055 h 2.176432 2.176433 l 1.247486,0.70293 1.247487,0.70292 v 0.9462 0.94616 l -1.013482,1.06707 -1.013483,1.06707 z m 89.693116,-0.0179 -78.199312,-0.0965 -2.57977,-0.41291 -2.579773,-0.41291 v -1.66699 -1.66701 l 1.612358,-0.4722 1.612356,-0.47221 11.931444,-0.12729 11.931444,-0.12729 3.119931,-0.44981 3.119935,-0.4498 -3.764878,-2.794 -3.764874,-2.79401 -3.38595,-3.21055 -3.38595,-3.21053 v -0.72169 -0.72169 l 4.030893,-3.94997 4.030893,-3.94997 0.881363,-0.018 0.881365,-0.0179 -0.42456,1.86737 -0.42456,1.86737 -0.37232,3.16736 -0.372325,3.16737 4.07416,3.1578 4.074162,3.15783 1.000902,-0.33225 1.000898,-0.33223 4.192129,-1.88973 4.19213,-1.88978 4.192126,-0.005 4.19213,-0.005 2.613464,1.44801 2.613457,1.44802 3.376605,3.19638 3.376606,3.19637 2.585454,-0.36511 2.58547,-0.36513 4.911037,-2.45553 4.91101,-2.45558 3.9991,-3.00456 3.99906,-3.00457 4.33136,-4.92561 4.33139,-4.92563 2.81973,-6.14143 2.81971,-6.14143 0.96351,-4.41379 0.96353,-4.41378 0.39671,-1.9753 0.39674,-1.97532 2.25152,-2.37055 2.25154,-2.37003 0.68537,0.72162 0.6854,0.72163 -1.05789,6.53442 -1.0579,6.53446 -1.57449,5.23832 -1.57447,5.23832 -3.18717,5.43237 -3.18717,5.43236 -3.60366,4.17972 -3.60367,4.17969 -5.55095,3.96882 -5.55095,3.9688 37.31325,0.41457 37.31323,0.41457 2.41854,0.0947 2.41853,0.0947 v 2.37665 2.37666 z m -26.140413,-5.42181 1.753348,0.0857 -0.359857,-0.98737 -0.359859,-0.98737 -2.725769,-1.38928 -2.725766,-1.38927 -2.859851,0.0306 -2.859859,0.0306 -1.934828,0.88749 -1.934829,0.88748 3.869657,0.78268 3.869658,0.78267 2.257301,0.59005 2.257301,0.59005 1.753353,0.0857 z m 110.347863,5.49752 -1.81597,-0.0205 -1.12868,-0.69215 -1.12863,-0.69212 v -1.18855 -1.18854 l 0.77392,-0.81485 0.77393,-0.81485 h 2.64428 2.64427 l 0.77393,0.81485 0.77394,0.81485 v 1.19839 1.19838 l -1.24752,0.70297 -1.24748,0.70291 -1.81599,-0.0205 z m 9.2303,0 -0.72719,-0.0205 -1.12866,-0.69215 -1.12864,-0.69212 v -0.87959 -0.87957 l 1.32762,-1.26503 1.32765,-1.26502 1.09089,0.72326 1.09089,0.72331 0.21452,1.14816 0.2145,1.14816 -0.77718,0.98592 -0.77717,0.98596 -0.7272,-0.0205 z M 33.653972,188.69038 h -0.473177 l -1.125503,-1.30942 -1.125504,-1.30944 0.40984,-1.35955 0.409838,-1.35957 27.265744,-28.90653 27.265742,-28.90654 h 0.922263 0.92227 l 9.350688,8.89706 9.350667,8.89705 4.5555,4.71072 4.55549,4.71072 26.24052,-27.85001 26.24054,-27.850029 v -0.531849 -0.531841 l -2.84714,0.23842 -2.84714,0.238427 -0.69839,-1.373957 -0.69839,-1.373934 1.69968,-1.407653 1.69965,-1.40763 4.25425,-1.383475 4.25423,-1.383474 3.61834,-0.398187 3.61835,-0.398189 0.40203,1.103037 0.402,1.103066 -1.54658,6.419296 -1.54663,6.419262 -1.08597,2.40949 -1.08595,2.40951 h -1.19372 -1.1937 l -0.73251,-1.44106 -0.73248,-1.44103 0.40257,-2.12393 0.40256,-2.12393 -5.87532,6.11139 -5.8753,6.11139 -10.36293,11.54373 -10.36291,11.54375 -11.02585,11.7785 -11.02582,11.7785 -1.03876,0.58728 -1.03874,0.58726 -6.37811,-5.87936 -6.3781,-5.87936 -8.352207,-8.0602 -8.352223,-8.06022 -13.903932,14.81516 -13.90393,14.81513 -12.481335,13.4111 -12.481335,13.41112 z m 59.572538,-0.67905 h -2.67176 l -1.71733,-1.42228 -1.71733,-1.42225 -1.21979,-2.51741 -1.219787,-2.51743 -0.673728,-5.1 -0.67372,-5.09999 -0.980867,-3.96494 -0.980874,-3.96493 -0.255967,-0.2695 -0.25597,-0.2695 -4.752204,-0.38657 -4.752202,-0.38658 -1.512062,-0.99643 -1.512062,-0.99646 1.463244,-1.63989 1.463255,-1.63992 3.273522,0.0296 3.27353,0.0296 2.814411,0.57243 2.814406,0.57245 1.655015,1.7425 1.655013,1.74252 0.843757,4.61569 0.843761,4.61568 0.974474,5.3809 0.974482,5.38092 1.012355,1.62676 1.012347,1.62673 1.729197,-1.15394 1.729177,-1.15394 1.83118,-1.77945 1.83116,-1.77946 0.971037,-1.95823 0.971,-1.95821 0.5383,-4.00967 0.53831,-4.00966 1.39406,-3.03203 1.39408,-3.03201 1.56199,-0.41276 1.56202,-0.41277 0.95904,0.838 0.95905,0.83803 v 1.05171 1.05171 l -0.85616,1.07203 -0.85615,1.07203 -0.7562,2.79494 -0.75622,2.79497 -5.1e-4,1.61883 -5.1e-4,1.61884 -1.85593,4.07425 -1.8559,4.07426 -2.17446,2.10427 -2.174467,2.10427 -1.59463,1.12119 -1.59462,1.12118 z m 21.3166,-14.26244 -0.66797,0.002 -1.07534,-1.13219 -1.07531,-1.13217 2.50623,-3.15169 2.50622,-3.15167 0.45465,-1.9973 0.45465,-1.99727 0.63501,-0.84881 0.63495,-0.84881 h 1.18826 1.18821 l 0.72668,1.42957 0.72665,1.42961 -0.38337,2.13539 -0.38338,2.13538 -1.28212,2.2131 -1.28212,2.2131 -2.10196,1.34934 -2.10197,1.34935 -0.66797,0.002 z M 36.461981,171.7143 h -0.808654 l -1.337942,-3.76506 -1.337943,-3.76505 -0.965696,-5.83052 -0.965696,-5.83049 v -4.91494 -4.91492 l 0.98655,-5.95643 0.986551,-5.95641 1.986231,-5.02341 1.986229,-5.02341 2.716185,-3.88477 2.716182,-3.88475 2.934062,-3.13357 2.934057,-3.13356 3.381246,-2.81402 3.381245,-2.81405 3.899876,-2.406489 3.899878,-2.406525 4.895267,-1.741215 4.895255,-1.741223 9.392362,-0.334076 9.392366,-0.334075 5.288541,1.408066 5.288507,1.408094 4.0412,2.030667 4.04119,2.030631 4.17337,3.328325 4.17342,3.32829 5.15954,5.76094 5.15953,5.76096 2.6996,5.37732 2.69956,5.37735 -6.06769,5.97586 -6.06769,5.97581 -1.79143,-1.33498 -1.79142,-1.335 -1.40759,-0.42803 -1.40758,-0.42804 0.36774,3.75141 0.36771,3.75135 -1.0058,0.40638 -1.00582,0.40638 -1.33363,-0.75146 -1.33358,-0.75146 -0.9741,-1.98326 -0.9741,-1.98328 v -2.35001 -2.35001 l 1.98434,-1.75798 1.98428,-1.75797 h 2.23987 2.23984 l 1.93719,1.05474 1.93722,1.05473 2.91914,-0.46091 2.91912,-0.46089 0.33041,-0.90654 0.33041,-0.90655 -2.67627,-5.10455 -2.67627,-5.10456 -2.89713,-4.05781 -2.89714,-4.05784 -4.09393,-3.42987 -4.09392,-3.42988 -4.26782,-2.10276 -4.2678,-2.10275 -0.957767,0.38697 -0.95779,0.38697 v 3.37231 3.37234 l -0.61724,1.70929 -0.61724,1.70929 -1.93049,1.05108 -1.930524,1.05111 h -2.805277 -2.805286 l -0.773929,0.81484 -0.77393,0.81486 v 1.58676 1.58677 l -3.912951,4.21903 -3.912946,4.21907 -1.217247,-1.56493 -1.217244,-1.56489 0.633732,-1.75498 0.633728,-1.75498 1.539581,-1.92643 1.53959,-1.92643 0.408441,-1.95796 0.408442,-1.95797 1.742264,-1.72976 1.742253,-1.7298 2.579768,-0.73849 2.579773,-0.73854 1.773603,-0.005 1.773587,-0.005 v -4.70442 -4.704463 l -3.405053,-0.447919 -3.405048,-0.447932 -1.915733,0.229193 -1.915724,0.22996 -0.836802,2.698331 -0.836807,2.69833 -1.098022,1.27955 -1.098027,1.27955 -2.902242,1.55816 -2.902244,1.55815 -2.090312,2.50133 -2.090304,2.50133 -0.811938,-0.28283 -0.811931,-0.2828 -0.954174,-1.78181 -0.954168,-1.78179 1.328544,-1.89849 1.328544,-1.8985 3.172814,-2.16086 3.172809,-2.16085 1.507483,-1.14108 1.50749,-1.141053 -0.686501,-0.722788 -0.686504,-0.722821 -3.40076,0.820442 -3.400749,0.820422 -4.888971,2.408558 -4.888964,2.40854 0.05193,6.01523 0.05193,6.01523 -2.257302,2.47926 -2.257297,2.47924 -2.579774,1.39748 -2.579769,1.39743 -3.818331,3.63589 -3.818326,3.63584 h -1.479767 -1.47976 l -0.667633,1.31346 -0.66768,1.31345 v 1.06322 1.06321 h 1.562874 1.562874 l 1.941261,1.7198 1.941262,1.71984 0.63198,2.18468 0.631984,2.18466 0.415495,3.68244 0.415495,3.68243 0.688525,1.41041 0.688523,1.41037 1.242,1.43851 1.242,1.43851 -2.069403,1.83336 -2.069399,1.83336 -1.522945,-1.9138 -1.522948,-1.91376 -1.277433,-2.51937 -1.277432,-2.51937 -0.0088,-3.2525 -0.0088,-3.2525 -0.388887,-1.52785 -0.388886,-1.52784 h -1.948134 -1.948139 l 0.351832,7.97875 0.351828,7.97876 1.451994,4.93368 1.451999,4.93373 -1.505247,1.68696 -1.505247,1.68699 z m 6.252887,-47.96744 1.55251,-1.45299 3.763426,-2.50942 3.763427,-2.50947 1.234881,-1.30017 1.234881,-1.30016 v -2.71579 -2.71619 h -0.581232 -0.581237 l -4.417071,4.9912 -4.417075,4.99121 -1.55251,2.98755 -1.552515,2.98757 z m 19.863594,20.12663 h -0.575154 v -0.92378 -0.92383 l 1.661663,-2.64115 1.661664,-2.64117 2.046757,-1.8863 2.04676,-1.88627 1.833527,-1.04975 1.833529,-1.0497 0.350319,0.36883 0.350318,0.36885 -5.317112,6.13215 -5.317117,6.13212 z m 40.134758,-10.86467 h -0.56644 l -4.593567,-4.47785 -4.593592,-4.4778 0.393301,-0.67003 0.393301,-0.67002 1.60671,0.42456 1.60669,0.4246 1.84866,1.43902 1.848657,1.43904 1.31134,2.93732 1.31138,2.93731 v 0.34691 0.34694 z m -81.289682,-28.21391 -0.705685,0.4592 -0.393234,-1.07896 -0.393235,-1.07891 -0.790201,0.6905 -0.790202,0.69048 -0.379928,-0.40005 -0.379929,-0.40002 0.387634,-1.06355 0.387636,-1.06357 -0.709979,0.46199 -0.709979,0.46198 -0.380601,-0.64838 -0.380602,-0.6484 1.080618,-0.63671 1.080618,-0.636718 L 17.9446,98.801161 17.542734,97.69856 h 0.947172 0.947173 l 0.0195,1.188323 0.0195,1.188327 0.657379,-1.188327 0.657376,-1.188323 h 1.004372 1.004368 l -0.402602,1.104635 -0.402599,1.104629 0.735038,0.932496 0.735041,0.9325 h -0.986006 -0.986004 l 0.318278,1.28144 0.318278,1.28146 -0.705682,0.45919 z m 110.600242,-0.31724 -5.20372,-0.0102 -4.83706,-2.46952 -4.83708,-2.469555 -3.95516,-4.234016 -3.95516,-4.23403 -2.17178,-4.647193 -2.17181,-4.647221 v -6.854869 -6.854151 l 2.75117,-5.845043 2.75117,-5.845017 3.53811,-3.320182 3.53812,-3.320208 3.06238,-1.647645 3.0624,-1.647617 7.89837,-0.225079 7.8984,-0.225079 3.06564,1.091132 3.06564,1.091132 3.54719,2.577037 3.54719,2.577062 3.03908,4.201301 3.03905,4.201299 1.31429,4.480148 1.3143,4.480173 v 4.558527 4.558551 l -1.02433,3.688213 -1.02434,3.688214 -1.91344,3.17348 -1.91348,3.173486 -2.74616,2.665144 -2.74611,2.665172 -2.86158,1.742544 -2.86156,1.74258 -3.50299,1.0766 -3.50302,1.07661 -5.20372,-0.0101 z m 1.66416,-5.692778 4.93302,-0.269446 3.96169,-1.871902 3.96171,-1.871901 3.15242,-3.63165 3.15242,-3.631622 1.37125,-3.85878 1.37125,-3.858783 v -4.840221 -4.840222 l -1.42796,-4.030784 -1.42799,-4.03081 -4.25112,-4.46847 -4.25112,-4.468443 -3.02658,-0.794141 -3.0266,-0.794116 -5.35764,0.0026 -5.35766,0.0051 -2.5798,0.7491 -2.57976,0.749099 -3.00301,2.313923 -3.00302,2.313897 -1.94285,3.214341 -1.94287,3.214367 -1.09893,4.025216 -1.09895,4.025215 0.33121,4.123305 0.33118,4.123307 1.36542,3.788615 1.36541,3.788616 2.34639,2.886193 2.34641,2.886194 2.64674,1.762591 2.64676,1.76257 2.57977,0.898306 2.57976,0.898292 4.93305,-0.269418 z m -0.67964,-3.856132 -0.38375,-0.05361 -0.79477,-0.338489 -0.79475,-0.33849 -0.64323,-2.493837 -0.64323,-2.493824 -2.41879,-1.358094 -2.41875,-1.358073 -0.63307,-1.903211 -0.63307,-1.903217 0.6893,-1.152492 0.68931,-1.152472 1.0761,-0.222769 1.07606,-0.22277 1.85456,2.090257 1.85455,2.090282 h 2.27495 2.27494 l 1.01407,-1.067675 1.01404,-1.067674 -0.41377,-1.818263 -0.41378,-1.818237 -0.21792,-0.268298 -0.21792,-0.268298 -4.53984,-0.43812 -4.53985,-0.438121 -1.76225,-1.855425 -1.76225,-1.855425 v -3.88909 -3.889065 l 1.2899,-1.844901 1.28987,-1.844903 2.05424,-1.051993 2.05423,-1.051967 0.20305,-1.856425 0.20304,-1.856452 h 2.25731 2.25729 l 0.20502,1.877522 0.20498,1.877523 2.19943,0.967555 2.1994,0.967557 1.31519,2.247759 1.3152,2.247735 -0.17233,1.288749 -0.17234,1.288724 -1.1052,0.729364 -1.1052,0.729338 -1.83233,-1.848317 -1.83234,-1.848315 h -3.35066 -3.35067 v 2.716165 2.716165 h 3.02109 3.02108 l 2.74647,1.399852 2.74647,1.399825 0.7567,2.414094 0.75672,2.414066 -0.35749,2.806765 -0.35747,2.806759 -1.98482,1.867357 -1.98483,1.867385 h -0.94494 -0.94499 l -0.42136,1.867364 -0.42138,1.86735 -0.98076,1.188351 -0.98074,1.188324 -0.38375,-0.05361 z m -48.980613,-16.976746 -1.266428,0.713606 -1.478525,-1.260544 -1.478519,-1.260545 1.11103,-1.785283 1.111032,-1.785309 h 0.852587 0.852582 l 1.145594,1.33279 1.145593,1.332815 -0.364259,0.999433 -0.364262,0.999432 z m -0.99655,-2.166762 0.389647,-0.410249 -0.338736,-0.891255 -0.338738,-0.891231 -0.0509,1.301505 -0.0509,1.30148 0.389655,-0.41025 z m 88.561683,-12.738565 -0.2717,-0.02053 -1.12864,-0.692149 -1.12865,-0.692124 v -1.650928 -1.650929 l 1.62074,-0.428291 1.62073,-0.428291 0.95905,0.838027 0.95903,0.838001 v 0.8302 0.830148 l -1.17945,1.123827 -1.17942,1.123803 -0.27169,-0.02053 z m -0.1643,-2.242831 0.42996,-0.452697 -0.42996,-0.452699 -0.42997,-0.452699 v 0.905398 0.905395 z M 55.553782,56.240685 55.23131,56.225286 54.425133,55.261195 53.618954,54.297129 v -0.707704 -0.707701 h 1.632597 1.632598 l 0.39621,1.087076 0.396206,1.087103 -0.900152,0.600115 -0.900159,0.600091 z M 198.43132,55.597863 h -0.94471 l -0.63696,-1.253102 -0.63697,-1.253101 0.9733,-1.463091 0.97333,-1.463063 h 0.83087 0.83087 l 1.11985,1.30284 1.11985,1.30284 -1.34235,1.41335 -1.34235,1.413327 z m 0.68943,-1.542009 0.38966,-0.410249 -0.33875,-0.89123 -0.33873,-0.891255 -0.0509,1.301504 -0.0509,1.301506 0.38965,-0.410276 z m -59.10788,-15.588621 -0.99582,0.200697 -1.42269,-1.594466 -1.42272,-1.594493 v -1.799706 -1.799707 l 1.24749,-0.702929 1.2475,-0.702954 h 1.23232 1.23231 l 1.20904,1.406602 1.20904,1.4066 -1.27032,2.489907 -1.27029,2.489879 z m -0.90546,-3.345205 1.14947,-0.234576 0.28895,-0.91366 0.28897,-0.913661 -1.14948,0.234574 -1.14948,0.234575 -0.28897,0.913661 -0.28895,0.913661 z M 18.830004,34.494295 18.469567,34.440655 17.663389,34.098134 16.857208,33.75564 v -1.940449 -1.940476 l 0.650714,-0.423442 0.650714,-0.423415 1.251125,0.418077 1.251122,0.418101 0.434503,1.441379 0.434502,1.441352 -1.169722,0.900545 -1.169721,0.900547 z m 0.391995,-2.209877 0.429962,-0.452698 -0.429962,-0.4527 -0.429962,-0.452697 v 0.905397 0.905396 z m 63.587101,-6.450422 -1.060266,0.90491 0.501797,-0.878551 0.501798,-0.878553 -0.731784,-0.928366 -0.731784,-0.928367 0.720233,-0.468662 0.720226,-0.468662 -0.321214,-0.881323 -0.321208,-0.881324 2.231808,0.06647 2.231811,0.06647 -0.314041,0.861666 -0.314044,0.861638 0.648093,0.421722 0.648094,0.42172 -0.67067,0.850835 -0.670663,0.850834 0.478116,0.531155 0.47811,0.531155 -1.482072,-0.47998 -1.482074,-0.47998 -1.060266,0.904909 z m 102.37821,-0.340005 h -1.7588 l -0.80955,-1.364819 -0.80954,-1.364819 1.0826,-0.833485 1.08258,-0.833459 -0.69405,-0.451646 -0.69405,-0.451621 0.43141,-0.734983 0.43146,-0.73501 0.86897,1.251228 0.86897,1.251228 0.86895,-1.251228 0.86897,-1.251228 0.4855,0.827094 0.48552,0.827094 -0.38146,0.401626 -0.38146,0.401626 0.67636,0.858072 0.67637,0.85807 -0.76998,1.298118 -0.76996,1.298142 z"
       id="path883" />
  </g>
</svg>
